<svg xmlns="http://www.w3.org/2000/svg" fill="#ffffff" viewBox="0 0 594 125" xmlns:v="https://vecta.io/nano"><path d="M43.58 50.96l-16.81 7.7 16.81 8.26v19.26L.23 58.66l43.35-27.45zm57.42 7.7L57.65 86.18V66.92l16.81-8.26-16.81-7.7V31.21zm29.59-32.04v21.34h34.91v16.15h-34.91v35.27h-16.75v-88.9h58.39v16.14zm104.49 43.72c0-7.46-1.02-13.83-3.08-19.11-2.06-5.27-5.07-9.3-9.02-12.07-3.96-2.77-8.7-4.16-14.25-4.16-5.91 0-10.95 1.16-15.13 3.49-4.18 2.32-7.36 5.7-9.54 10.15-2.18 4.44-3.27 9.8-3.27 16.08v7.15c0 5.99 1.14 11.12 3.42 15.38 2.29 4.26 5.6 7.5 9.94 9.72s9.57 3.33 15.68 3.33c4.2 0 8.36-.82 12.48-2.47 4.11-1.66 7.82-3.99 11.12-7.01l-10.94-9.72a20.29 20.29 0 0 1-5.99 3.4c-2.2.79-4.43 1.19-6.67 1.19-4.36 0-7.75-1.18-10.18-3.55-1.96-1.91-3.13-4.45-3.5-7.64h38.93v-4.16zm-39.06-7.15c.14-3.99 1.25-7.11 3.33-9.36 2.22-2.4 5.35-3.6 9.38-3.6 3.1 0 5.58.99 7.43 2.99 1.86 2 3.01 4.83 3.46 8.5l.18 1.47h-23.78zm70.49 15.22c0 1.55.44 2.74 1.31 3.58.88.84 2.13 1.25 3.76 1.25h2.81v16.14h-8.56c-5.1 0-9.05-1.47-11.86-4.4s-4.22-7.07-4.22-12.41V10.48h16.75v67.93zm18.59-67.93h16.75v16.75H285.1V10.48zm0 25.44h16.75v63.47H285.1V35.92zm82.67 11.8c-1.68-4.16-4.11-7.32-7.31-9.48S353.42 35 348.93 35c-3.38 0-6.47 1.01-9.26 3.03-2.14 1.54-3.97 3.59-5.47 6.14v-8.25h-16.75v89.27h16.75V91.37c1.26 2.53 2.97 4.56 5.13 6.09 2.7 1.89 5.89 2.84 9.6 2.84 4.49 0 8.33-1.08 11.53-3.24s5.63-5.29 7.31-9.38c1.67-4.1 2.5-9.04 2.5-14.83V62.7c0-5.83-.83-10.82-2.5-14.98zm-14.25 25.13c0 3.79-.87 6.72-2.6 8.8s-4.17 3.12-7.3 3.12c-2 0-3.7-.39-5.11-1.16s-2.48-1.9-3.21-3.36c-.73-1.47-1.1-3.24-1.1-5.32V60.68c0-2.16.37-3.99 1.1-5.5s1.8-2.66 3.21-3.46c1.41-.79 3.11-1.19 5.11-1.19 3.13 0 5.57 1.07 7.3 3.21s2.6 5.15 2.6 9.02v10.09zm84.5-2.51c0-7.46-1.03-13.83-3.09-19.11-2.06-5.27-5.06-9.3-9.02-12.07-3.95-2.77-8.7-4.16-14.24-4.16-5.91 0-10.96 1.16-15.14 3.49-4.17 2.32-7.35 5.7-9.53 10.15-2.19 4.44-3.28 9.8-3.28 16.08v7.15c0 5.99 1.15 11.12 3.43 15.38s5.59 7.5 9.93 9.72c4.35 2.22 9.57 3.33 15.69 3.33 4.2 0 8.35-.82 12.47-2.47a36.62 36.62 0 0 0 11.13-7.01l-10.95-9.72a20.29 20.29 0 0 1-5.99 3.4c-2.2.79-4.42 1.19-6.66 1.19-4.36 0-7.76-1.18-10.18-3.55-1.96-1.91-3.13-4.45-3.5-7.64h38.93v-4.16zm-39.06-7.15c.14-3.99 1.25-7.11 3.32-9.36 2.22-2.4 5.35-3.6 9.39-3.6 3.09 0 5.57.99 7.43 2.99 1.85 2 3 4.83 3.45 8.5l.18 1.47h-23.77zm90.36-12.23l-16.81 7.7 16.81 8.26v19.26l-43.35-27.52 43.35-27.45zm20.79 65.3h-15.9L533.95-.03h15.9l-39.74 116.29zm84.01-57.6l-43.35 27.52V66.92l16.81-8.26-16.81-7.7V31.21z"/></svg>