<?xml version="1.0" encoding="utf-8"?>
<!-- Generator: Adobe Illustrator 24.0.1, SVG Export Plug-In . SVG Version: 6.00 Build 0)  -->
<svg version="1.1" xmlns="http://www.w3.org/2000/svg" xmlns:xlink="http://www.w3.org/1999/xlink" x="0px" y="0px"
	 viewBox="0 0 148 117" style="enable-background:new 0 0 148 117;" xml:space="preserve">
<style type="text/css">
	.st0{display:none;}
	.st1{display:inline;}
	.st2{fill:#BF0600;}
</style>
<g id="Layer_1" class="st0">
	<g class="st1">
		<g>
			<path d="M-29,93c-4.3-2.2-7.7-5.5-9.9-9.7c-2.3-4.3-3.4-9.4-3.4-15.4v-7.2c0-6.3,1.1-11.6,3.3-16.1c2.2-4.4,5.4-7.8,9.5-10.1
				c4.2-2.3,9.2-3.5,15.1-3.5c5.5,0,10.3,1.4,14.2,4.2c4,2.8,7,6.8,9,12.1c2.1,5.3,3.1,11.6,3.1,19.1v4.2h-43.4V59.2h28.1l-0.2-1.5
				C-4,54.1-5.2,51.2-7,49.2c-1.9-2-4.3-3-7.4-3c-4,0-7.2,1.2-9.4,3.6c-2.2,2.4-3.3,5.8-3.3,10.2v8.1c0,4.3,1.2,7.7,3.6,10
				c2.4,2.4,5.8,3.5,10.2,3.5c2.2,0,4.5-0.4,6.7-1.2s4.2-1.9,6-3.4l10.9,9.7c-3.3,3-7,5.4-11.1,7c-4.1,1.7-8.3,2.5-12.5,2.5
				C-19.5,96.3-24.7,95.2-29,93z"/>
			<path d="M43.3,74.4c0,1.5,0.4,2.7,1.3,3.6c0.9,0.8,2.1,1.3,3.8,1.3h2.8v16.1h-8.6c-5.1,0-9-1.5-11.9-4.4
				c-2.8-2.9-4.2-7.1-4.2-12.4V6.5h16.8V74.4z"/>
			<path d="M61.9,6.5h16.8v16.8H61.9V6.5z M61.9,31.9h16.8v63.5H61.9V31.9z"/>
			<path d="M94.3,31.9H111v89.3H94.3V31.9z M116.2,93.5c-2.7-1.9-4.7-4.6-6-8l0.9-14.5c0,2.1,0.4,3.9,1.1,5.3
				c0.7,1.5,1.8,2.6,3.2,3.4c1.4,0.8,3.1,1.2,5.1,1.2c3.1,0,5.6-1,7.3-3.1c1.7-2.1,2.6-5,2.6-8.8V58.8c0-3.9-0.9-6.9-2.6-9
				c-1.7-2.1-4.2-3.2-7.3-3.2c-2,0-3.7,0.4-5.1,1.2s-2.5,1.9-3.2,3.5c-0.7,1.5-1.1,3.3-1.1,5.5l-1.3-14.1c1.7-3.7,4-6.6,6.8-8.6
				c2.8-2,5.9-3,9.3-3c4.5,0,8.3,1.1,11.5,3.2c3.2,2.2,5.6,5.3,7.3,9.5c1.7,4.2,2.5,9.2,2.5,15v10.2c0,5.8-0.8,10.7-2.5,14.8
				c-1.7,4.1-4.1,7.2-7.3,9.4c-3.2,2.2-7,3.2-11.5,3.2C122,96.3,118.8,95.4,116.2,93.5z"/>
		</g>
	</g>
</g>
<g id="Layer_2">
	<polygon class="st2" points="43.3,51.3 26.5,59 43.3,67.3 43.3,86.6 -0.1,59 43.3,31.6 	"/>
	<path class="st2" d="M64.1,116.6H48.2L87.9,0.4h15.9L64.1,116.6z"/>
	<polygon class="st2" points="148.1,59 104.7,86.6 104.7,67.3 121.5,59 104.7,51.3 104.7,31.6 	"/>
</g>
</svg>
