<svg width="82" height="82" fill="none" xmlns="http://www.w3.org/2000/svg"><path fill="#0A0909" d="M7 10h68v61H7z"/><path d="M72.889 0H9.11A9.109 9.109 0 0 0 0 9.111V72.89A9.109 9.109 0 0 0 9.111 82H72.89A9.109 9.109 0 0 0 82 72.889V9.11A9.109 9.109 0 0 0 72.889 0zM27.333 63.778H15.84v-31.89h11.493v31.89zm-5.95-37.734c-3.512 0-5.858-2.341-5.858-5.467 0-3.125 2.342-5.466 6.246-5.466 3.512 0 5.858 2.341 5.858 5.466 0 3.126-2.341 5.467-6.245 5.467zm46.95 37.734H57.21v-17.43c0-4.82-2.966-5.931-4.078-5.931-1.111 0-4.82.742-4.82 5.931v17.43H36.819v-31.89h11.494v4.452c1.48-2.597 4.446-4.451 10.008-4.451 5.563 0 10.013 4.45 10.013 14.46v17.429z" fill="#fff"/></svg>