<svg width="88" height="88" fill="none" xmlns="http://www.w3.org/2000/svg"><path fill="#fff" d="M18 20h51v45H18z"/><path d="M75.142 12.883C66.844 4.58 55.808.004 44.051 0 19.823 0 .106 19.708.097 43.934a43.83 43.83 0 0 0 5.865 21.965L0 88l23.026-5.443a43.918 43.918 0 0 0 21.003 5.35h.017c24.223 0 43.94-19.711 43.954-43.933.009-11.744-4.559-22.784-12.858-31.09zm-9.587 46.755c-.916 2.565-5.4 5.038-7.415 5.218-2.015.185-3.903.91-13.179-2.746-11.163-4.4-18.212-15.844-18.758-16.574-.55-.735-4.483-5.954-4.483-11.357s2.838-8.06 3.845-9.156c1.008-1.1 2.196-1.373 2.93-1.373.731 0 1.466 0 2.104.026.783.031 1.65.07 2.473 1.897.977 2.173 3.111 7.603 3.384 8.153.273.55.457 1.192.092 1.923-.365.73-.55 1.188-1.095 1.83-.55.643-1.153 1.43-1.646 1.923-.55.546-1.122 1.144-.484 2.24.642 1.1 2.842 4.694 6.107 7.603 4.198 3.74 7.731 4.897 8.832 5.451 1.1.55 1.738.458 2.38-.277.642-.73 2.746-3.203 3.476-4.303s1.466-.915 2.473-.55c1.008.365 6.407 3.023 7.503 3.573 1.1.55 1.83.823 2.103 1.28.273.453.273 2.653-.642 5.219z" fill="#fff"/><path d="M72.311 15.712C64.767 8.164 54.734 4.004 44.046 4 22.021 4 4.096 21.916 4.088 43.94A39.846 39.846 0 0 0 9.42 63.908L4 84l20.933-4.948a39.926 39.926 0 0 0 19.093 4.864h.016c22.021 0 39.946-17.92 39.958-39.94.008-10.676-4.144-20.712-11.689-28.264zm-8.716 42.504c-.832 2.332-4.908 4.58-6.74 4.744-1.832.168-3.548.828-11.981-2.496-10.149-4-16.557-14.404-17.053-15.068-.5-.668-4.076-5.412-4.076-10.324s2.58-7.328 3.496-8.324c.916-1 1.996-1.248 2.664-1.248.664 0 1.332 0 1.912.024.712.028 1.5.064 2.248 1.724.889 1.976 2.829 6.912 3.077 7.412.248.5.416 1.084.084 1.748-.332.664-.5 1.08-.996 1.664-.5.584-1.048 1.3-1.496 1.748-.5.496-1.02 1.04-.44 2.036.584 1 2.584 4.268 5.552 6.912 3.816 3.4 7.028 4.452 8.028 4.956 1 .5 1.58.416 2.164-.252.584-.664 2.496-2.912 3.16-3.912.664-1 1.333-.832 2.249-.5.916.332 5.824 2.748 6.82 3.248 1 .5 1.664.748 1.912 1.164.248.412.248 2.412-.584 4.744z" fill="#0A0909"/></svg>